<mxfile host="app.diagrams.net" agent="Mozilla/5.0 (X11; Linux x86_64) AppleWebKit/537.36 (KHTML, like Gecko) Chrome/140.0.0.0 Safari/537.36" version="28.2.3">
  <diagram name="페이지-1" id="ViazSTqoB_5mIUEUiT7P">
    <mxGraphModel dx="946" dy="545" grid="1" gridSize="10" guides="1" tooltips="1" connect="1" arrows="1" fold="1" page="1" pageScale="1" pageWidth="827" pageHeight="1169" math="0" shadow="0">
      <root>
        <mxCell id="0" />
        <mxCell id="1" parent="0" />
        <mxCell id="7_0cER-q0BNUgjpGA9av-7" style="edgeStyle=orthogonalEdgeStyle;rounded=0;orthogonalLoop=1;jettySize=auto;html=1;exitX=0.5;exitY=1;exitDx=0;exitDy=0;exitPerimeter=0;" parent="1" source="7_0cER-q0BNUgjpGA9av-1" target="7_0cER-q0BNUgjpGA9av-6" edge="1">
          <mxGeometry relative="1" as="geometry" />
        </mxCell>
        <mxCell id="7_0cER-q0BNUgjpGA9av-1" value="여자친구가 삐짐" style="strokeWidth=2;html=1;shape=mxgraph.flowchart.start_1;whiteSpace=wrap;" parent="1" vertex="1">
          <mxGeometry x="270" y="110" width="140" height="60" as="geometry" />
        </mxCell>
        <mxCell id="7_0cER-q0BNUgjpGA9av-3" value="문제점 파악" style="rounded=1;whiteSpace=wrap;html=1;absoluteArcSize=1;arcSize=14;strokeWidth=2;" parent="1" vertex="1">
          <mxGeometry x="252" y="340" width="176" height="50" as="geometry" />
        </mxCell>
        <mxCell id="7_0cER-q0BNUgjpGA9av-10" style="edgeStyle=orthogonalEdgeStyle;rounded=0;orthogonalLoop=1;jettySize=auto;html=1;exitX=1;exitY=0.5;exitDx=0;exitDy=0;exitPerimeter=0;entryX=1;entryY=0.5;entryDx=0;entryDy=0;" parent="1" source="7_0cER-q0BNUgjpGA9av-5" target="7_0cER-q0BNUgjpGA9av-3" edge="1">
          <mxGeometry relative="1" as="geometry" />
        </mxCell>
        <mxCell id="7_0cER-q0BNUgjpGA9av-14" style="edgeStyle=orthogonalEdgeStyle;rounded=0;orthogonalLoop=1;jettySize=auto;html=1;exitX=0.5;exitY=1;exitDx=0;exitDy=0;exitPerimeter=0;entryX=0.5;entryY=0;entryDx=0;entryDy=0;" parent="1" source="7_0cER-q0BNUgjpGA9av-5" target="7_0cER-q0BNUgjpGA9av-13" edge="1">
          <mxGeometry relative="1" as="geometry" />
        </mxCell>
        <mxCell id="7_0cER-q0BNUgjpGA9av-5" value="문제점을 제대로 파악하였는가?" style="strokeWidth=2;html=1;shape=mxgraph.flowchart.decision;whiteSpace=wrap;" parent="1" vertex="1">
          <mxGeometry x="255" y="460" width="170" height="160" as="geometry" />
        </mxCell>
        <mxCell id="7_0cER-q0BNUgjpGA9av-8" style="edgeStyle=orthogonalEdgeStyle;rounded=0;orthogonalLoop=1;jettySize=auto;html=1;exitX=0.5;exitY=1;exitDx=0;exitDy=0;entryX=0.5;entryY=0;entryDx=0;entryDy=0;" parent="1" source="7_0cER-q0BNUgjpGA9av-6" target="7_0cER-q0BNUgjpGA9av-3" edge="1">
          <mxGeometry relative="1" as="geometry" />
        </mxCell>
        <mxCell id="7_0cER-q0BNUgjpGA9av-6" value="사과하기" style="rounded=1;whiteSpace=wrap;html=1;absoluteArcSize=1;arcSize=14;strokeWidth=2;" parent="1" vertex="1">
          <mxGeometry x="255" y="230" width="170" height="50" as="geometry" />
        </mxCell>
        <mxCell id="7_0cER-q0BNUgjpGA9av-9" style="edgeStyle=orthogonalEdgeStyle;rounded=0;orthogonalLoop=1;jettySize=auto;html=1;exitX=0.5;exitY=1;exitDx=0;exitDy=0;entryX=0.5;entryY=0;entryDx=0;entryDy=0;entryPerimeter=0;" parent="1" source="7_0cER-q0BNUgjpGA9av-3" target="7_0cER-q0BNUgjpGA9av-5" edge="1">
          <mxGeometry relative="1" as="geometry" />
        </mxCell>
        <mxCell id="7_0cER-q0BNUgjpGA9av-11" value="NO" style="text;html=1;align=center;verticalAlign=middle;whiteSpace=wrap;rounded=0;" parent="1" vertex="1">
          <mxGeometry x="440" y="430" width="60" height="30" as="geometry" />
        </mxCell>
        <mxCell id="7_0cER-q0BNUgjpGA9av-12" value="YES" style="text;html=1;align=center;verticalAlign=middle;whiteSpace=wrap;rounded=0;" parent="1" vertex="1">
          <mxGeometry x="380" y="640" width="60" height="30" as="geometry" />
        </mxCell>
        <mxCell id="7_0cER-q0BNUgjpGA9av-13" value="문제점을 반복하지 않겠다며 사과" style="rounded=1;whiteSpace=wrap;html=1;absoluteArcSize=1;arcSize=14;strokeWidth=2;" parent="1" vertex="1">
          <mxGeometry x="255" y="680" width="168" height="50" as="geometry" />
        </mxCell>
        <mxCell id="7_0cER-q0BNUgjpGA9av-17" style="edgeStyle=orthogonalEdgeStyle;rounded=0;orthogonalLoop=1;jettySize=auto;html=1;exitX=1;exitY=0.5;exitDx=0;exitDy=0;exitPerimeter=0;entryX=1;entryY=0.5;entryDx=0;entryDy=0;" parent="1" source="7_0cER-q0BNUgjpGA9av-15" target="7_0cER-q0BNUgjpGA9av-6" edge="1">
          <mxGeometry relative="1" as="geometry" />
        </mxCell>
        <mxCell id="7_0cER-q0BNUgjpGA9av-20" style="edgeStyle=orthogonalEdgeStyle;rounded=0;orthogonalLoop=1;jettySize=auto;html=1;exitX=0;exitY=0.5;exitDx=0;exitDy=0;exitPerimeter=0;entryX=1;entryY=0.5;entryDx=0;entryDy=0;" parent="1" source="7_0cER-q0BNUgjpGA9av-15" target="7_0cER-q0BNUgjpGA9av-19" edge="1">
          <mxGeometry relative="1" as="geometry" />
        </mxCell>
        <mxCell id="7_0cER-q0BNUgjpGA9av-15" value="기분이 풀렸는가?" style="strokeWidth=2;html=1;shape=mxgraph.flowchart.decision;whiteSpace=wrap;" parent="1" vertex="1">
          <mxGeometry x="350" y="820" width="170" height="170" as="geometry" />
        </mxCell>
        <mxCell id="7_0cER-q0BNUgjpGA9av-16" style="edgeStyle=orthogonalEdgeStyle;rounded=0;orthogonalLoop=1;jettySize=auto;html=1;exitX=0.5;exitY=1;exitDx=0;exitDy=0;entryX=0.5;entryY=0;entryDx=0;entryDy=0;entryPerimeter=0;" parent="1" source="7_0cER-q0BNUgjpGA9av-13" target="7_0cER-q0BNUgjpGA9av-15" edge="1">
          <mxGeometry relative="1" as="geometry" />
        </mxCell>
        <mxCell id="7_0cER-q0BNUgjpGA9av-18" value="No" style="text;html=1;align=center;verticalAlign=middle;whiteSpace=wrap;rounded=0;" parent="1" vertex="1">
          <mxGeometry x="550" y="555" width="60" height="30" as="geometry" />
        </mxCell>
        <mxCell id="7_0cER-q0BNUgjpGA9av-19" value="맛난 것을 뇌물로 달래기" style="rounded=1;whiteSpace=wrap;html=1;absoluteArcSize=1;arcSize=14;strokeWidth=2;" parent="1" vertex="1">
          <mxGeometry x="70" y="880" width="150" height="50" as="geometry" />
        </mxCell>
        <mxCell id="7_0cER-q0BNUgjpGA9av-23" style="edgeStyle=orthogonalEdgeStyle;rounded=0;orthogonalLoop=1;jettySize=auto;html=1;exitX=0.5;exitY=0;exitDx=0;exitDy=0;exitPerimeter=0;entryX=0;entryY=0.5;entryDx=0;entryDy=0;" parent="1" source="7_0cER-q0BNUgjpGA9av-21" target="7_0cER-q0BNUgjpGA9av-6" edge="1">
          <mxGeometry relative="1" as="geometry" />
        </mxCell>
        <mxCell id="7_0cER-q0BNUgjpGA9av-21" value="완전히 풀렸는가?" style="strokeWidth=2;html=1;shape=mxgraph.flowchart.decision;whiteSpace=wrap;" parent="1" vertex="1">
          <mxGeometry x="65" y="620" width="160" height="170" as="geometry" />
        </mxCell>
        <mxCell id="7_0cER-q0BNUgjpGA9av-22" style="edgeStyle=orthogonalEdgeStyle;rounded=0;orthogonalLoop=1;jettySize=auto;html=1;exitX=0.5;exitY=0;exitDx=0;exitDy=0;entryX=0.5;entryY=1;entryDx=0;entryDy=0;entryPerimeter=0;" parent="1" source="7_0cER-q0BNUgjpGA9av-19" target="7_0cER-q0BNUgjpGA9av-21" edge="1">
          <mxGeometry relative="1" as="geometry" />
        </mxCell>
        <mxCell id="7_0cER-q0BNUgjpGA9av-24" value="No" style="text;html=1;align=center;verticalAlign=middle;whiteSpace=wrap;rounded=0;" parent="1" vertex="1">
          <mxGeometry x="140" y="440" width="60" height="30" as="geometry" />
        </mxCell>
        <mxCell id="7_0cER-q0BNUgjpGA9av-26" value="상황 끝" style="strokeWidth=2;html=1;shape=mxgraph.flowchart.start_1;whiteSpace=wrap;" parent="1" vertex="1">
          <mxGeometry x="289" y="1050" width="100" height="60" as="geometry" />
        </mxCell>
        <mxCell id="7_0cER-q0BNUgjpGA9av-27" style="edgeStyle=orthogonalEdgeStyle;rounded=0;orthogonalLoop=1;jettySize=auto;html=1;exitX=0;exitY=0.5;exitDx=0;exitDy=0;exitPerimeter=0;entryX=0;entryY=0.5;entryDx=0;entryDy=0;entryPerimeter=0;" parent="1" source="7_0cER-q0BNUgjpGA9av-21" target="7_0cER-q0BNUgjpGA9av-26" edge="1">
          <mxGeometry relative="1" as="geometry" />
        </mxCell>
        <mxCell id="7_0cER-q0BNUgjpGA9av-28" value="Yes" style="text;html=1;align=center;verticalAlign=middle;whiteSpace=wrap;rounded=0;" parent="1" vertex="1">
          <mxGeometry x="40" y="990" width="60" height="30" as="geometry" />
        </mxCell>
        <mxCell id="hdM-tNhBcpJ9WktnT5hg-1" value="Yes" style="text;html=1;align=center;verticalAlign=middle;whiteSpace=wrap;rounded=0;" vertex="1" parent="1">
          <mxGeometry x="255" y="860" width="60" height="30" as="geometry" />
        </mxCell>
      </root>
    </mxGraphModel>
  </diagram>
</mxfile>
